<?xml version="1.0" encoding="UTF-8"?>
<!DOCTYPE svg PUBLIC "-//W3C//DTD SVG 1.1//EN" "http://www.w3.org/Graphics/SVG/1.1/DTD/svg11.dtd">
<!-- Creator: CorelDRAW 2019 (64-Bit) -->
<svg xmlns="http://www.w3.org/2000/svg" xml:space="preserve" width="503px" height="91px" version="1.1" shape-rendering="geometricPrecision" text-rendering="geometricPrecision" image-rendering="optimizeQuality" fill-rule="evenodd" clip-rule="evenodd"
viewBox="0 0 503 91.02"
 xmlns:xlink="http://www.w3.org/1999/xlink"
 xmlns:xodm="http://www.corel.com/coreldraw/odm/2003">
 <defs>
   <linearGradient id="id0" gradientUnits="userSpaceOnUse" x1="251.33" y1="91.14" x2="251.33" y2="-6.9">
    <stop offset="0" stop-opacity="1" stop-color="#FF8133"/>
    <stop offset="0.34902" stop-opacity="1" stop-color="#FFB11A"/>
    <stop offset="1" stop-opacity="1" stop-color="#FFE100"/>
   </linearGradient>
 </defs>
 <g id="Слой_x0020_1">
  <metadata id="CorelCorpID_0Corel-Layer"/>
  <path fill="url(#id0)" d="M505.61 5.3l0 85.84 -508.56 0 0.01 -87.15c8,1.52 23.8,3.4 27.72,3.4 35.06,0 49.46,-13.65 96.28,-3.5 9.71,2.11 18.11,3.16 25.65,3.5l11.5 0c29.78,-1.37 47.37,-12.79 91.82,-3.54 10.53,2.19 19.46,3.24 27.35,3.54l9.91 0c30.54,-1.2 46.18,-13.04 91.67,-3.54 10.49,2.19 19.39,3.24 27.26,3.54l9.8 0c22.01,-0.86 36.29,-7.28 59.45,-7.27 5.2,0 11.74,0.52 16.9,1.21 1.8,0.24 9.39,2.88 13.24,3.97z"/>
 </g>
</svg>
