<?xml version="1.0" encoding="UTF-8"?>
<!DOCTYPE svg PUBLIC "-//W3C//DTD SVG 1.1//EN" "http://www.w3.org/Graphics/SVG/1.1/DTD/svg11.dtd">
<!-- Creator: CorelDRAW 2019 (64-Bit) -->
<svg xmlns="http://www.w3.org/2000/svg" xml:space="preserve" width="500px" height="91px" version="1.1" shape-rendering="geometricPrecision" text-rendering="geometricPrecision" image-rendering="optimizeQuality" fill-rule="evenodd" clip-rule="evenodd"
viewBox="0 0 500 90.48"
 xmlns:xlink="http://www.w3.org/1999/xlink"
 xmlns:xodm="http://www.corel.com/coreldraw/odm/2003">
 <defs>
   <linearGradient id="id0" gradientUnits="userSpaceOnUse" x1="249.83" y1="90.6" x2="249.83" y2="-6.86">
    <stop offset="0" stop-opacity="1" stop-color="#FF8133"/>
    <stop offset="0.34902" stop-opacity="1" stop-color="#FFB11A"/>
    <stop offset="1" stop-opacity="1" stop-color="#FFE100"/>
   </linearGradient>
 </defs>
 <g id="Слой_x0020_1">
  <metadata id="CorelCorpID_0Corel-Layer"/>
  <path fill="url(#id0)" d="M505.39 5.27l0 85.33 -511.12 0 0.01 -86.63c8.04,1.5 23.92,3.38 27.86,3.38 35.23,0 49.71,-13.58 96.76,-3.48 9.77,2.09 18.21,3.13 25.78,3.48l11.56 0c29.93,-1.37 47.61,-12.71 92.29,-3.52 10.58,2.18 19.56,3.22 27.48,3.52l9.96 0c30.69,-1.2 46.42,-12.96 92.14,-3.52 10.54,2.17 19.48,3.22 27.39,3.52l9.85 0c22.13,-0.86 36.47,-7.24 59.75,-7.23 5.23,0 11.8,0.51 16.98,1.2 1.81,0.24 9.44,2.87 13.31,3.95z"/>
 </g>
</svg>
