<?xml version="1.0" encoding="utf-8"?>
<svg width="24px" height="24px" viewBox="0 0 24 24" version="1.1" xmlns:xlink="http://www.w3.org/1999/xlink" xmlns="http://www.w3.org/2000/svg">
  <desc>Created with Lunacy</desc>
  <g id="noun_Info_1228105-Copy-9">
    <path d="M11.6827 23.3654C18.1352 23.3654 23.3654 18.1349 23.3654 11.6827C23.3654 5.23047 18.1352 0 11.6827 0C5.23021 0 0 5.23047 0 11.6827C0 18.1349 5.23021 23.3654 11.6827 23.3654ZM12.3317 4.08894C13.4073 4.08894 14.2788 4.96073 14.2788 6.03605C14.2788 7.11138 13.4073 7.98317 12.3317 7.98317C11.2561 7.98317 10.3846 7.11138 10.3846 6.03605C10.3846 4.96073 11.2561 4.08894 12.3317 4.08894ZM13.884 11.4579C14.102 10.0406 13.6298 8.89182 11.6827 8.89182C9.08653 8.89182 8.43749 11.488 8.43749 11.488C9.73557 10.8389 10.3846 10.8389 10.3846 10.8389L9.48141 16.7104C9.26333 18.1276 9.73557 19.2764 11.6827 19.2764C14.2788 19.2764 14.9279 16.6803 14.9279 16.6803C13.6298 17.3293 12.9808 17.3293 12.9808 17.3293L13.884 11.4579Z" transform="translate(-1.012523E-13 0.1394486)" id="Shape" fill="#A84F9A" fill-rule="evenodd" stroke="none" />
  </g>
</svg>