<?xml version="1.0" encoding="UTF-8"?>
<!DOCTYPE svg PUBLIC "-//W3C//DTD SVG 1.1//EN" "http://www.w3.org/Graphics/SVG/1.1/DTD/svg11.dtd">
<!-- Creator: CorelDRAW 2019 (64-Bit) -->
<svg xmlns="http://www.w3.org/2000/svg" xml:space="preserve" width="1381px" height="250px" version="1.1" shape-rendering="geometricPrecision" text-rendering="geometricPrecision" image-rendering="optimizeQuality" fill-rule="evenodd" clip-rule="evenodd"
viewBox="0 0 1381 249.9"
 xmlns:xlink="http://www.w3.org/1999/xlink"
 xmlns:xodm="http://www.corel.com/coreldraw/odm/2003">
 <defs>
   <linearGradient id="id0" gradientUnits="userSpaceOnUse" x1="690.03" y1="250.22" x2="690.03" y2="-18.95">
    <stop offset="0" stop-opacity="1" stop-color="#FF8133"/>
    <stop offset="0.34902" stop-opacity="1" stop-color="#FFB11A"/>
    <stop offset="1" stop-opacity="1" stop-color="#FFE100"/>
   </linearGradient>
 </defs>
 <g id="Слой_x0020_1">
  <metadata id="CorelCorpID_0Corel-Layer"/>
  <path fill="url(#id0)" d="M1388.17 14.55l0 235.67 -1396.28 0 0.04 -239.25c21.97,4.15 65.34,9.32 76.11,9.32 96.24,0 135.8,-37.49 264.32,-9.61 26.69,5.79 49.74,8.66 70.42,9.61l31.59 0c81.75,-3.78 130.05,-35.11 252.1,-9.72 28.91,6.02 53.43,8.89 75.09,9.72l27.19 0c83.85,-3.31 126.81,-35.79 251.7,-9.72 28.8,6.01 53.24,8.89 74.83,9.72l26.9 0c60.45,-2.36 99.64,-19.99 163.25,-19.96 14.27,0.01 32.22,1.41 46.37,3.32 4.94,0.67 25.8,7.92 36.37,10.9z"/>
 </g>
</svg>
